<svg width="155" height="49" viewBox="0 0 155 49" fill="none" xmlns="http://www.w3.org/2000/svg">
<g clip-path="url(#clip0_260_139)">
<path fill-rule="evenodd" clip-rule="evenodd" d="M121.772 19.497C117.958 13.447 111.184 4.90605 108.061 4.86805C106.208 4.84305 103.7 8.63005 101.684 11.6741C98.8929 15.8891 96.2579 19.872 92.7599 19.827C89.2669 19.786 86.7199 15.7411 84.0209 11.4581C82.0749 8.36605 79.6489 4.51805 77.7939 4.49605C75.9389 4.47305 73.4299 8.26005 71.4149 11.3031C68.6239 15.5181 65.9849 19.5 62.4929 19.456C58.9989 19.415 56.4499 15.3701 53.7529 11.0851C51.8059 7.99405 49.3819 4.14705 47.5269 4.12405C45.6679 4.10205 43.1619 7.89005 41.1479 10.9311C38.3559 15.1481 35.7189 19.1301 32.2259 19.0861C28.7319 19.042 26.1839 14.9981 23.4859 10.7151C21.5389 7.62305 19.1159 3.77505 17.2599 3.75105C14.1419 3.71505 7.17692 12.085 3.23092 18.042L0.721924 16.3741C2.45892 13.7511 11.4229 0.66705 17.2929 0.74005C20.7879 0.78205 23.3349 4.82705 26.0309 9.10905C27.9799 12.2031 30.4029 16.05 32.2589 16.074C34.1169 16.0981 36.6229 12.3071 38.6379 9.26605C41.4289 5.05005 44.0659 1.06605 47.5599 1.11105C51.0539 1.15505 53.6029 5.19905 56.2989 9.48205C58.2459 12.5741 60.6709 16.4221 62.5259 16.4451C64.3769 16.4691 66.8889 12.6811 68.9049 9.63805C71.6959 5.42205 74.3339 1.43905 77.8279 1.48405C81.3219 1.52505 83.8699 5.57005 86.5679 9.85505C88.5149 12.9461 90.9379 16.793 92.7939 16.816C94.6469 16.84 97.1579 13.0511 99.1749 10.0081C101.965 5.79205 104.599 1.81005 108.095 1.85505C113.966 1.92605 122.639 15.227 124.317 17.892L121.772 19.497Z" fill="#F7593E"/>
<path fill-rule="evenodd" clip-rule="evenodd" d="M151.772 48.4971C147.958 42.4461 141.184 33.9061 138.061 33.8671C136.208 33.8431 133.7 37.6301 131.684 40.6741C128.893 44.8891 126.258 48.8721 122.76 48.8281C119.267 48.7861 116.72 44.7411 114.021 40.4581C112.075 37.3661 109.649 33.5181 107.794 33.4951C105.939 33.4731 103.43 37.2601 101.415 40.3031C98.6239 44.5191 95.9849 48.5011 92.4929 48.4571C88.9989 48.4151 86.4499 44.3701 83.7529 40.0851C81.8059 36.9941 79.3819 33.1471 77.5269 33.1251C75.6679 33.1021 73.1619 36.8891 71.1479 39.9311C68.3559 44.1481 65.7189 48.1301 62.2259 48.0861C58.7319 48.0421 56.1839 43.9981 53.4859 39.7141C51.5389 36.6231 49.1159 32.7751 47.2599 32.7511C44.1419 32.7151 37.1769 41.0851 33.2309 47.0421L30.7219 45.3741C32.4589 42.7511 41.4229 29.6671 47.2929 29.7391C50.7879 29.7821 53.3349 33.8271 56.0309 38.1091C57.9799 41.2031 60.4029 45.0501 62.2589 45.0741C64.1169 45.0981 66.6229 41.3071 68.6379 38.2661C71.4289 34.0501 74.0659 30.0671 77.5599 30.1111C81.0539 30.1551 83.6029 34.1991 86.2989 38.4821C88.2459 41.5741 90.6709 45.4221 92.5259 45.4451C94.3769 45.4691 96.8889 41.6801 98.9049 38.6371C101.696 34.4221 104.334 30.4391 107.828 30.4831C111.322 30.5251 113.87 34.5701 116.568 38.8541C118.515 41.9461 120.938 45.7931 122.794 45.8151C124.647 45.8401 127.158 42.0511 129.175 39.0081C131.965 34.7921 134.599 30.8111 138.095 30.8541C143.966 30.9261 152.639 44.2271 154.317 46.8921L151.772 48.4971Z" fill="#F7593E"/>
</g>
<defs>
<clipPath id="clip0_260_139">
<rect width="155" height="49" fill="white"/>
</clipPath>
</defs>
</svg>
